# xmcd
#
# Track frame offsets: 
#        150
#        18681
#        36769
#        54789
#        75932
#        97316
#        119031
#        149109
#        167332
#        183321
#        202336
#        222408
#        239679
#        263021
#        279414
#
# Disc length: 3929 seconds
#
# Revision: 6
# Processed by: cddbd v1.5.2PL0 Copyright (c) Steve Scherf et al.
# Submitted via: ExactAudioCopyFreeDBPlugin 1.0
#
DISCID=e30f570f
DTITLE=La Repubblica: Il Disco del Mese - 38 - Mediterraneo
DYEAR=1998
DGENRE=Ethnic
TTITLE0=Tarkan - Ölürüm Sana
TTITLE1=Pyx Lax - Lene Gia Mena
TTITLE2=Mau Mau - Bass Paradis
TTITLE3=Handala - Scaptillak
TTITLE4=Agricantus - Carizzi r'Amuri (Es Souk)
TTITLE5=Gino D'Auri - Barrio San Miguel
TTITLE6=Natacha Atlas - Duden
TTITLE7=Almamegretta - Suddd
TTITLE8=Radio Tarifa - Rumba Argelina
TTITLE9=Cheb Mami - Haoulou
TTITLE10=Alan Stivell and Khaled - Ensemble (Understand)
TTITLE11=Brian Keane and Omar Faruk Tekbilek - Siseler
TTITLE12=Pantarei - Assùd Ta' Fà
TTITLE13=Kunsertu - Ghandura
TTITLE14=Les Negresses Vertes - Zobi la Mouche
EXTD=
EXTT0=
EXTT1=
EXTT2=
EXTT3=
EXTT4=
EXTT5=
EXTT6=
EXTT7=
EXTT8=
EXTT9=
EXTT10=
EXTT11=
EXTT12=
EXTT13=
EXTT14=
PLAYORDER=
